<svg width="24" height="24" xmlns="http://www.w3.org/2000/svg">
 <defs>
  <clipPath id="clip0_2_418">
   <rect id="svg_1" fill="white" height="24" width="24"/>
  </clipPath>
 </defs>
 <g>
  <title>background</title>
  <rect fill="none" id="canvas_background" height="402" width="582" y="-1" x="-1"/>
 </g>
 <g>
  <title>Layer 1</title>
  <g id="svg_2" clip-path="url(#clip0_2_418)">
   <path id="svg_3" fill="#ffffff" d="m12,5.76825c-3.4362,0 -6.23175,2.79555 -6.23175,6.23175c0,3.4362 2.79555,6.2293 6.23175,6.2293c3.4362,0 6.2293,-2.7955 6.2293,-6.2293c0.0024,-3.4362 -2.7931,-6.23175 -6.2293,-6.23175zm0,10.08535c-2.12578,0 -3.85359,-1.7278 -3.85359,-3.8536c0,-2.12578 1.72781,-3.85359 3.85359,-3.85359c2.1258,0 3.8536,1.72781 3.8536,3.85359c0,2.1258 -1.7278,3.8536 -3.8536,3.8536zm5.0936,-15.8536l-10.18723,0c-3.80748,0 -6.90637,3.09889 -6.90637,6.90637l0,10.18723c0,3.8075 3.09889,6.9064 6.90637,6.9064l10.18723,0c3.8075,0 6.9064,-3.0989 6.9064,-6.9064l0,-10.18723c0,-3.80748 -3.0965,-6.90637 -6.9064,-6.90637zm4.5307,17.0936c0,2.4971 -2.0336,4.5282 -4.5307,4.5282l-10.18723,0c-2.49707,0 -4.52821,-2.0311 -4.52821,-4.5282l0,-10.18723c0,-2.49707 2.03114,-4.52821 4.52821,-4.52821l10.18723,0c2.4971,0 4.5282,2.03114 4.5282,4.52821l0,10.18723l0.0025,0zm-3.3076,-13.12596c-0.8979,0 -1.6308,0.73044 -1.6308,1.63074c0,0.89788 0.7305,1.63074 1.6308,1.63074c0.8979,0 1.6307,-0.73043 1.6307,-1.63074c0,-0.9003 -0.7328,-1.63074 -1.6307,-1.63074z"/>
  </g>
 </g>
</svg>