<svg width="24" height="24" xmlns="http://www.w3.org/2000/svg">

 <g>
  <title>background</title>
  <rect fill="none" id="canvas_background" height="402" width="582" y="-1" x="-1"/>
 </g>
 <g>
  <title>Layer 1</title>
  <path id="svg_1" fill="#ffffff" d="m24,4.55654c-0.8831,0.39219 -1.832,0.65549 -2.8276,0.77616c1.0175,-0.60886 1.7964,-1.57426 2.1639,-2.72342c-0.9517,0.56498 -2.0075,0.97363 -3.1265,1.19578c-0.8968,-0.95717 -2.1776,-1.55506 -3.5927,-1.55506c-2.7206,0 -4.9256,2.20232 -4.9256,4.923c0,0.3867 0.0438,0.76244 0.1261,1.12173c-4.09185,-0.2057 -7.72024,-2.16393 -10.14739,-5.14515c-0.42235,0.72679 -0.66644,1.57426 -0.66644,2.47658c0,1.70865 0.86939,3.21435 2.18855,4.09747c-0.80631,-0.02468 -1.56599,-0.24684 -2.22969,-0.61709l0,0.06308c0,2.38608 1.69764,4.37448 3.94927,4.82698c-0.41139,0.1125 -0.84745,0.1728 -1.29723,0.1728c-0.31813,0 -0.6253,-0.0302 -0.92423,-0.0878c0.6253,1.9555 2.4436,3.3789 4.5965,3.4201c-1.68392,1.3192 -3.80391,2.1063 -6.11313,2.1063c-0.39767,0 -0.78711,-0.0219 -1.17381,-0.0685c2.18032,1.3959 4.76654,2.2105 7.54748,2.2105c9.05592,0 14.00892,-7.5011 14.00892,-14.00654c0,-0.21392 -0.0055,-0.42511 -0.0137,-0.63629c0.9626,-0.69662 1.7991,-1.56329 2.4573,-2.55063z"/>
 </g>
</svg>